<svg width="248" height="248" viewBox="0 0 248 248" fill="none" xmlns="http://www.w3.org/2000/svg">
<path d="M0 0H248V248H0V0Z" fill="black"/>
<path d="M205.718 83.073C206.922 83.073 206.793 82.5056 205.062 84.002C203.483 85.367 201.467 87.6825 199.048 91.1225C194.226 97.9786 188.927 107.658 183.229 118.702C177.674 129.468 171.674 141.668 165.884 152.466C160.103 163.246 154.025 173.613 147.922 180.979C145.432 183.984 141.378 185.196 137.646 184.05C133.915 182.905 131.24 179.627 130.866 175.743C130.551 172.467 128.483 166.247 124.385 157.411C121.081 150.287 116.807 142.189 112.061 133.775H60.8106V174.819H41.4896V73.4155H60.8106V114.46H100.714C92.3752 100.763 83.9755 87.8773 77.8344 78.8431L93.8157 67.9879C102.298 80.4665 114.95 100.059 126.046 119.293C132.032 129.671 137.645 140.081 141.914 149.286C142.472 150.49 143.016 151.696 143.544 152.896C145.269 149.92 147.042 146.721 148.856 143.339C154.581 132.663 160.225 121.152 166.057 109.848C171.745 98.8225 177.576 88.0702 183.241 80.0142C186.065 75.999 189.132 72.2375 192.427 69.39C195.569 66.6738 200.106 63.7581 205.718 63.7581V83.073Z" fill="white"/>
</svg>
